<svg width="80" height="80" viewBox="0 0 80 80" fill="none" xmlns="http://www.w3.org/2000/svg">
<mask id="mask0" mask-type="alpha" maskUnits="userSpaceOnUse" x="0" y="0" width="80" height="80">
<circle cx="40" cy="40" r="40" fill="#2F2B35"/>
</mask>
<g mask="url(#mask0)">
</g>
<path d="M70 40C70 44.2564 69.1135 48.3057 67.5155 51.973C66.8029 53.609 65.9481 55.1702 64.9674 56.6384C64.611 57.1723 64.2375 57.6951 63.8458 58.2045C63.4049 58.7812 62.9422 59.342 62.4622 59.8857C61.3736 61.1151 60.1858 62.2538 58.9098 63.2897C58.458 63.6571 57.9964 64.0122 57.5238 64.3513C56.2136 65.2967 54.8237 66.1379 53.3654 66.8639C52.807 67.1431 52.2388 67.4051 51.6609 67.6489C48.0767 69.1636 44.1364 70 40 70C35.8502 70 31.8964 69.1575 28.3025 67.6343C26.2171 66.7503 24.253 65.6372 22.4409 64.3258C21.9682 63.9854 21.5054 63.6303 21.0535 63.2604C19.7825 62.2245 18.5984 61.0858 17.5146 59.8575C16.6158 58.8425 15.7868 57.7674 15.0326 56.6384C14.6959 56.1352 14.3738 55.6196 14.0677 55.0943C13.4677 54.0645 12.9252 52.9955 12.4489 51.8923C10.873 48.2457 10 44.2245 10 40C10 23.4314 23.4314 10 40 10C56.5686 10 70 23.4314 70 40Z" fill="#343A6E"/>
<path d="M64.6362 34.6362C64.6362 38.1316 63.9081 41.457 62.596 44.4686C62.0107 45.8121 61.3088 47.0942 60.5035 48.2998C60.2108 48.7382 59.9042 49.1676 59.5824 49.5859C59.2204 50.0596 58.8402 50.5202 58.446 50.9665C57.5521 51.9761 56.5767 52.9113 55.5289 53.762C55.1578 54.0638 54.7787 54.3554 54.3906 54.6339C53.3146 55.4103 52.1733 56.101 50.9758 56.6973C50.5172 56.9266 50.0507 57.1418 49.5761 57.3419C46.6328 58.5857 43.3969 59.2725 40.0001 59.2725C36.5922 59.2725 33.3453 58.5807 30.394 57.3298C28.6816 56.6038 27.0687 55.6898 25.5804 54.6128C25.1923 54.3333 24.8121 54.0416 24.4411 53.7379C23.3973 52.8872 22.425 51.952 21.535 50.9434C20.7968 50.1098 20.1162 49.227 19.4967 48.2998C19.2203 47.8865 18.9558 47.4632 18.7043 47.0318C18.2116 46.1862 17.7661 45.3082 17.3751 44.4023C16.0808 41.4077 15.364 38.1054 15.364 34.6362C15.3638 21.0299 26.3937 10 40 10C53.6063 10 64.6362 21.0299 64.6362 34.6362Z" fill="#484B7F"/>
<path d="M24.5218 38.5049H18.9749V42.7H24.5218V38.5049Z" fill="#823728"/>
<path d="M28.3033 34.2852C28.3033 37.4201 26.1027 40.041 23.1619 40.6875C22.7064 40.7878 22.2329 40.841 21.7475 40.841C18.1272 40.841 15.1917 37.9056 15.1917 34.2852C15.1917 30.6648 18.1272 27.7305 21.7475 27.7305C22.2329 27.7305 22.7064 27.7839 23.1619 27.884C26.1027 28.5304 28.3033 31.1501 28.3033 34.2852Z" fill="#823728"/>
<path d="M28.303 34.2852C28.303 37.42 26.1025 40.0409 23.1616 40.6875C20.2208 40.0411 18.0203 37.4203 18.0203 34.2852C18.0203 31.1503 20.2208 28.5304 23.1616 27.884C26.1025 28.5303 28.303 31.15 28.303 34.2852Z" fill="#965845"/>
<path d="M31.0455 50.1389V58.6662C31.0455 60.1822 29.8185 61.4103 28.3039 61.4103H28.3027V67.6344C22.877 65.3348 18.2692 61.4838 15.0329 56.6384C14.0362 55.1458 13.1692 53.5576 12.4492 51.8923V50.1389C12.4492 46.1422 14.9704 42.7368 18.508 41.4217C19.517 41.0458 20.608 40.8413 21.748 40.8413C26.8821 40.8412 31.0455 45.0032 31.0455 50.1389Z" fill="#FF668C"/>
<path d="M14.0678 55.0942C13.4678 54.0644 12.9253 52.9954 12.449 51.8922V50.1387C12.449 46.1421 14.9701 42.7367 18.5078 41.4216L19.1714 42.6302C16.5633 43.4321 13.9564 47.2525 14.0678 55.0942Z" fill="#EF487D"/>
<path d="M31.0456 56.6384V58.6662C31.0456 60.1822 29.8186 61.4103 28.304 61.4103H28.3028V67.6344C22.8771 65.3348 18.2693 61.4838 15.033 56.6384H31.0456Z" fill="#484B7F"/>
<path d="M26.9936 56.6384H16.7532V58.274H26.9936V56.6384Z" fill="#EF487D"/>
<path d="M17.7536 56.6384V58.7568C17.7536 59.1499 17.6679 59.5222 17.5147 59.8577C16.6159 58.8426 15.7869 57.7675 15.0327 56.6385L17.7536 56.6384Z" fill="#965845"/>
<path d="M25.7411 56.6384H31.0458V58.7573C31.0458 60.2221 29.8583 61.4097 28.3934 61.4097C26.9285 61.4097 25.741 60.2223 25.741 58.7573L25.7411 56.6384Z" fill="#823728"/>
<path d="M31.0456 56.6384V58.7568C31.0456 59.9367 30.2765 60.936 29.212 61.2806C28.8087 61.1504 28.4472 60.9264 28.1538 60.6331C27.6738 60.1531 27.3762 59.4897 27.3762 58.7568V56.6384H31.0456Z" fill="#965845"/>
<path d="M21.7473 44.3717L24.6077 41.9894L21.7473 40.8408L18.887 41.9894L21.7473 44.3717Z" fill="#F0F0F0"/>
<path d="M21.7472 40.8408L18.7445 44.6205L16.6824 41.0649L21.7472 40.8408Z" fill="#EF487D"/>
<path d="M21.7471 40.8408L24.7498 44.6205L26.812 41.0649L21.7471 40.8408Z" fill="#EF487D"/>
<path d="M21.7473 54.1138L24.0389 52.1583L21.7473 43.3049L19.4558 52.1583L21.7473 54.1138Z" fill="#F0F0F0"/>
<path d="M17.2538 47.1094C17.53 47.1094 17.754 47.3333 17.754 47.6095V56.6384H16.7537V47.6095C16.7535 47.3333 16.9775 47.1094 17.2538 47.1094Z" fill="#EF487D"/>
<path d="M26.2411 47.1094C26.5173 47.1094 26.7413 47.3333 26.7413 47.6095V56.6384H25.741V47.6095C25.7411 47.3333 25.9649 47.1094 26.2411 47.1094Z" fill="#EF487D"/>
<path d="M22.4406 61.332V64.3259C21.968 63.9854 21.5051 63.6304 21.0532 63.2605V61.332C21.0532 60.9486 21.3642 60.6389 21.7476 60.6389C22.1296 60.6389 22.4406 60.9486 22.4406 61.332Z" fill="#343A6E"/>
<path d="M30.857 24.9419C30.857 28.2688 28.1593 30.9665 24.8324 30.9665H16.0867C16.0867 27.6395 18.7843 24.9419 22.1123 24.9419H30.857Z" fill="#5897D1"/>
<path d="M30.8568 24.9419C30.8568 28.2688 28.1592 30.9665 24.8322 30.9665H17.4187C17.4187 27.6395 20.1164 24.9419 23.4444 24.9419H30.8568Z" fill="#9FC5E6"/>
<path d="M60.9906 38.5049H55.4436V42.7H60.9906V38.5049Z" fill="#E5A379"/>
<path d="M64.7728 34.2851C64.7728 37.42 62.5722 40.0409 59.6314 40.6874C59.1759 40.7877 58.7023 40.8409 58.217 40.8409C54.5967 40.8409 51.6611 37.9055 51.6611 34.2851C51.6611 30.6647 54.5966 27.7305 58.217 27.7305C58.7023 27.7305 59.1759 27.7839 59.6314 27.884C62.5722 28.5303 64.7728 31.15 64.7728 34.2851Z" fill="#E5A379"/>
<path d="M64.7727 34.2852C64.7727 37.42 62.5722 40.0409 59.6314 40.6875C56.6905 40.0411 54.49 37.4203 54.49 34.2852C54.49 31.1503 56.6905 28.5304 59.6314 27.884C62.5722 28.5303 64.7727 31.15 64.7727 34.2852Z" fill="#F9D5A9"/>
<path d="M67.5157 50.1388V51.9732C66.8031 53.6091 65.9483 55.1703 64.9676 56.6385C61.7239 61.4949 57.1026 65.352 51.661 67.6491V61.4102C50.9802 61.4102 50.3557 61.1603 49.8757 60.7477C49.8035 60.6865 49.7337 60.6192 49.6676 60.5493C49.2035 60.0583 48.9194 59.3971 48.9194 58.666V50.1386C48.9194 46.1419 51.4394 42.7366 54.9783 41.4215C55.9872 41.0456 57.0783 40.8411 58.2171 40.8411C63.3524 40.8412 67.5157 45.0032 67.5157 50.1388Z" fill="#9FC5E6"/>
<path d="M50.5924 56.6385C50.7044 58.6396 50.4058 59.9388 49.8755 60.7484C49.803 60.6865 49.7336 60.6194 49.6675 60.55C49.2036 60.0583 48.9187 59.3969 48.9187 58.6662V50.1392C48.9187 46.1423 51.4393 42.7365 54.9775 41.4211L55.6409 42.6297C52.8676 43.4832 50.0941 47.75 50.5924 56.6385Z" fill="#5897D1"/>
<path d="M64.9672 56.6385C61.7236 61.4949 57.1023 65.352 51.6607 67.6491V61.4103C50.8758 61.4103 50.1668 61.0784 49.6672 60.5494V56.6384L64.9672 56.6385Z" fill="#484B7F"/>
<path d="M53.3652 58.5585V66.8641C52.8068 67.1433 52.2387 67.4053 51.6607 67.6491V61.4102C50.8758 61.4102 50.1668 61.0783 49.6672 60.5494V58.5583H53.3652V58.5585Z" fill="#343A6E"/>
<path d="M63.4638 56.6384H53.2234V58.274H63.4638V56.6384Z" fill="#5897D1"/>
<path d="M54.2234 56.6385V58.7569C54.2234 59.9368 53.4543 60.9362 52.3898 61.2807C52.1328 61.365 51.8575 61.4097 51.5716 61.4097C50.8387 61.4097 50.1753 61.1131 49.6953 60.6331C49.2153 60.1531 48.9187 59.4897 48.9187 58.7568V56.6384L54.2234 56.6385Z" fill="#E5A379"/>
<path d="M54.2233 56.6384V58.7568C54.2233 59.9367 53.4542 60.936 52.3897 61.2806C51.9865 61.1504 51.6249 60.9264 51.3315 60.6331C50.8515 60.1531 50.554 59.4897 50.554 58.7568V56.6384H54.2233Z" fill="#F9D5A9"/>
<path d="M64.9674 56.6385C64.611 57.1724 64.2375 57.6952 63.8458 58.2046C63.4049 58.7813 62.9421 59.3422 62.4621 59.8858C62.2993 59.5429 62.21 59.1609 62.21 58.7568V56.6384L64.9674 56.6385Z" fill="#E5A379"/>
<path d="M64.9675 56.6384C64.6112 57.1723 64.2377 57.6951 63.8459 58.2045V56.6384H64.9675Z" fill="#F9D5A9"/>
<path d="M58.2169 44.3717L61.0772 41.9894L58.2169 40.8408L55.3564 41.9894L58.2169 44.3717Z" fill="#484B7F"/>
<path d="M58.2171 40.8408L55.2144 44.6205L53.1521 41.0649L58.2171 40.8408Z" fill="#5897D1"/>
<path d="M58.2168 40.8408L61.2194 44.6205L63.2818 41.0649L58.2168 40.8408Z" fill="#5897D1"/>
<path d="M58.2169 54.1138L60.5084 52.1583L58.2169 43.3049L55.9253 52.1583L58.2169 54.1138Z" fill="#484B7F"/>
<path d="M53.7233 47.1094C53.9995 47.1094 54.2235 47.3333 54.2235 47.6095V56.6384H53.2231V47.6095C53.223 47.3333 53.4471 47.1094 53.7233 47.1094Z" fill="#5897D1"/>
<path d="M62.7106 47.1094C62.9868 47.1094 63.2108 47.3333 63.2108 47.6095V56.6384H62.2104V47.6095C62.2106 47.3333 62.4344 47.1094 62.7106 47.1094Z" fill="#5897D1"/>
<path d="M58.9098 61.332V63.2899C58.4579 63.6573 57.9963 64.0124 57.5237 64.3515V61.332C57.5237 60.9486 57.8335 60.6389 58.2167 60.6389C58.5999 60.6389 58.9098 60.9486 58.9098 61.332Z" fill="#343A6E"/>
<path d="M67.3267 24.9419C67.3267 28.2688 64.6291 30.9665 61.3021 30.9665H52.5564C52.5564 27.6395 55.2541 24.9419 58.5821 24.9419H67.3267Z" fill="#EF487D"/>
<path d="M67.3264 24.9419C67.3264 28.2688 64.6288 30.9665 61.3018 30.9665H53.8884C53.8884 27.6395 56.5861 24.9419 59.9141 24.9419H67.3264Z" fill="#FF668C"/>
<path d="M43.3147 45.2395H36.6829V50.2561H43.3147V45.2395Z" fill="#E5A654"/>
<path d="M47.8379 40.1938C47.8379 43.9422 45.2067 47.0759 41.6905 47.8489C41.1458 47.9687 40.5796 48.0325 39.9993 48.0325C35.6706 48.0325 32.1606 44.5226 32.1606 40.1938C32.1606 35.865 35.6705 32.3564 39.9993 32.3564C40.5796 32.3564 41.1459 32.4202 41.6905 32.5401C45.2067 33.313 47.8379 36.4455 47.8379 40.1938Z" fill="#E5A654"/>
<path d="M47.838 40.194C47.838 43.9424 45.2068 47.0761 41.6906 47.8491C38.1744 47.0762 35.5432 43.9425 35.5432 40.194C35.5432 36.4456 38.1744 33.3133 41.6906 32.5403C45.2068 33.3133 47.838 36.4457 47.838 40.194Z" fill="#F9C682"/>
<path d="M51.1171 59.15V67.8733C49.9232 68.3497 48.6926 68.7513 47.429 69.0733C45.0535 69.6781 42.5641 70.0001 40 70.0001C37.6698 70.0001 35.402 69.7345 33.2249 69.2311C31.7323 68.8871 30.2813 68.4316 28.8816 67.872V59.15C28.8816 54.372 31.8951 50.2994 36.1257 48.7271C37.333 48.2776 38.6371 48.0327 40 48.0327C46.1396 48.0327 51.1171 53.0091 51.1171 59.15Z" fill="#F0F0F0"/>
<path d="M30.8821 66.9218C30.9164 67.5317 30.9188 68.0875 30.8919 68.592C30.8735 68.587 30.8553 68.581 30.8369 68.5749C30.1744 68.363 29.5229 68.1279 28.8813 67.872V59.1499C28.8813 54.372 31.8948 50.2994 36.1254 48.7271L36.9189 50.172C33.6028 51.1921 30.287 56.2933 30.8821 66.9218Z" fill="#D4D4D4"/>
<path d="M47.4289 67.9514V69.073C45.0534 69.678 42.564 70 39.9999 70C37.6698 70 35.402 69.7343 33.2249 69.231V67.9514H47.4289Z" fill="#FF668C"/>
<path d="M46.2717 66.9216H34.0281V68.8773H46.2717V66.9216Z" fill="#D4D4D4"/>
<path d="M35.224 66.9216V69.4538C35.224 69.5102 35.2228 69.5664 35.2191 69.6216C33.7179 69.3816 32.2546 69.029 30.8366 68.5747C30.1742 68.3628 29.5227 68.1277 28.8811 67.8718V66.9216H35.224Z" fill="#E5A654"/>
<path d="M35.2241 66.9216V69.4538C35.2241 69.5102 35.2229 69.5664 35.2191 69.6216C33.718 69.3816 32.2546 69.029 30.8367 68.5747V66.9216H35.2241Z" fill="#F9C682"/>
<path d="M51.1168 66.9216V67.8731C49.7038 68.4364 48.238 68.8967 46.7294 69.2421C46.0865 69.389 45.4351 69.5151 44.7776 69.6205C44.7751 69.5654 44.7739 69.5103 44.7739 69.4551V66.9216H51.1168Z" fill="#E5A654"/>
<path d="M51.1169 66.9216V67.8731C49.7038 68.4364 48.238 68.8967 46.7295 69.2421V66.9216H51.1169Z" fill="#F9C682"/>
<path d="M39.9991 52.2544L43.4192 49.406L39.9991 48.0327L36.5789 49.406L39.9991 52.2544Z" fill="#EF487D"/>
<path d="M39.9992 48.0327L36.4089 52.5519L33.9431 48.3007L39.9992 48.0327Z" fill="#D4D4D4"/>
<path d="M39.999 48.0327L43.5892 52.5519L46.0551 48.3007L39.999 48.0327Z" fill="#D4D4D4"/>
<path d="M39.9994 63.9029L42.7392 61.5647L39.9994 50.9788L37.2593 61.5647L39.9994 63.9029Z" fill="#EF487D"/>
<path d="M34.6267 55.5278C34.9569 55.5278 35.2247 55.7956 35.2247 56.1258V66.9214H34.0286V56.1258C34.0286 55.7955 34.2965 55.5278 34.6267 55.5278Z" fill="#D4D4D4"/>
<path d="M45.3724 55.5278C45.7027 55.5278 45.9704 55.7956 45.9704 56.1258V66.9214H44.7744V56.1258C44.7744 55.7955 45.0422 55.5278 45.3724 55.5278Z" fill="#D4D4D4"/>
<path d="M50.8918 29.0225C50.8918 33.0005 47.6662 36.226 43.6883 36.226H33.2312C33.2312 32.2479 36.4568 29.0225 40.436 29.0225H50.8918Z" fill="#D4D4D4"/>
<path d="M50.8916 29.0225C50.8916 33.0005 47.666 36.226 43.688 36.226H34.824C34.824 32.2479 38.0496 29.0225 42.0288 29.0225H50.8916Z" fill="#F0F0F0"/>
<path d="M41.1924 10.7414L42.4133 13.215C42.607 13.6076 42.9814 13.8797 43.4146 13.9427L46.1444 14.3392C47.2353 14.4978 47.6709 15.8384 46.8815 16.6079L44.9063 18.5332C44.5928 18.8387 44.4499 19.279 44.5238 19.7105L44.9901 22.4293C45.1764 23.5157 44.0361 24.3442 43.0603 23.8313L40.6188 22.5476C40.2314 22.3438 39.7683 22.3438 39.3809 22.5476L36.9394 23.8313C35.9637 24.3442 34.8233 23.5157 35.0096 22.4293L35.4759 19.7105C35.5498 19.2791 35.4069 18.8387 35.0934 18.5332L33.1182 16.6079C32.3288 15.8384 32.7644 14.4978 33.8553 14.3392L36.5851 13.9427C37.0183 13.8797 37.3927 13.6076 37.5864 13.215L38.8073 10.7414C39.295 9.75285 40.7046 9.75285 41.1924 10.7414Z" fill="#F9DF73"/>
<path d="M25.024 11.8105L25.9888 13.7653C26.1419 14.0755 26.4379 14.2905 26.7802 14.3403L28.9374 14.6538C29.7995 14.7791 30.1437 15.8385 29.5199 16.4465L27.959 17.9681C27.7112 18.2096 27.5983 18.5574 27.6566 18.8985L28.0251 21.047C28.1724 21.9056 27.2712 22.5603 26.5 22.155L24.5705 21.1406C24.2643 20.9796 23.8985 20.9796 23.5922 21.1406L21.6626 22.155C20.8915 22.5604 19.9903 21.9056 20.1375 21.047L20.506 18.8985C20.5644 18.5574 20.4514 18.2095 20.2036 17.9681L18.643 16.4465C18.0191 15.8385 18.3635 14.7791 19.2256 14.6538L21.3828 14.3403C21.7252 14.2906 22.0211 14.0756 22.1741 13.7653L23.1389 11.8105C23.5245 11.0293 24.6386 11.0293 25.024 11.8105Z" fill="#F9DF73"/>
<path d="M56.8609 11.8105L57.8257 13.7653C57.9788 14.0755 58.2748 14.2905 58.6171 14.3403L60.7743 14.6538C61.6364 14.7791 61.9806 15.8385 61.3568 16.4465L59.7959 17.9681C59.5481 18.2096 59.4352 18.5574 59.4935 18.8985L59.862 21.047C60.0093 21.9056 59.1081 22.5603 58.3369 22.155L56.4074 21.1406C56.1012 20.9796 55.7354 20.9796 55.4291 21.1406L53.4996 22.155C52.7285 22.5604 51.8274 21.9056 51.9745 21.047L52.343 18.8985C52.4015 18.5574 52.2884 18.2095 52.0406 17.9681L50.4797 16.4465C49.8558 15.8385 50.2002 14.7791 51.0622 14.6538L53.2194 14.3403C53.5619 14.2906 53.8578 14.0756 54.0108 13.7653L54.9756 11.8105C55.3614 11.0293 56.4755 11.0293 56.8609 11.8105Z" fill="#F9DF73"/>
</svg>
